<mxfile host="app.diagrams.net" agent="Mozilla/5.0 (Windows NT 10.0; Win64; x64) AppleWebKit/537.36 (KHTML, like Gecko) Chrome/139.0.0.0 Safari/537.36" version="28.1.1">
  <diagram name="Voting System Framework" id="Jt_1U5houNizwSC_xp7A">
    <mxGraphModel dx="1296" dy="683" grid="1" gridSize="10" guides="1" tooltips="1" connect="1" arrows="1" fold="1" page="1" pageScale="1" pageWidth="850" pageHeight="1100" math="0" shadow="0">
      <root>
        <mxCell id="0" />
        <mxCell id="1" parent="0" />
        <mxCell id="DLSTFzLE0LJmMaxUwIx--2" value="Mula" style="ellipse;whiteSpace=wrap;html=1;" vertex="1" parent="1">
          <mxGeometry x="300" y="20" width="120" height="60" as="geometry" />
        </mxCell>
        <mxCell id="DLSTFzLE0LJmMaxUwIx--3" value="Login (no.IC + kata laluan)" style="rounded=0;whiteSpace=wrap;html=1;" vertex="1" parent="1">
          <mxGeometry x="260" y="110" width="200" height="60" as="geometry" />
        </mxCell>
        <mxCell id="DLSTFzLE0LJmMaxUwIx--48" style="edgeStyle=orthogonalEdgeStyle;rounded=0;orthogonalLoop=1;jettySize=auto;html=1;exitX=0;exitY=0.5;exitDx=0;exitDy=0;entryX=0;entryY=0.5;entryDx=0;entryDy=0;" edge="1" parent="1" source="DLSTFzLE0LJmMaxUwIx--4" target="DLSTFzLE0LJmMaxUwIx--7">
          <mxGeometry relative="1" as="geometry" />
        </mxCell>
        <mxCell id="DLSTFzLE0LJmMaxUwIx--49" style="edgeStyle=orthogonalEdgeStyle;rounded=0;orthogonalLoop=1;jettySize=auto;html=1;exitX=1;exitY=0.5;exitDx=0;exitDy=0;entryX=0;entryY=0.5;entryDx=0;entryDy=0;" edge="1" parent="1" source="DLSTFzLE0LJmMaxUwIx--4" target="DLSTFzLE0LJmMaxUwIx--15">
          <mxGeometry relative="1" as="geometry" />
        </mxCell>
        <mxCell id="DLSTFzLE0LJmMaxUwIx--4" value="Menu:Pilihan undian" style="rounded=0;whiteSpace=wrap;html=1;" vertex="1" parent="1">
          <mxGeometry x="220" y="380" width="280" height="60" as="geometry" />
        </mxCell>
        <mxCell id="DLSTFzLE0LJmMaxUwIx--5" value="Pilihan (ProdukA / ProdukB)" style="rounded=0;whiteSpace=wrap;html=1;" vertex="1" parent="1">
          <mxGeometry x="260" y="470" width="200" height="60" as="geometry" />
        </mxCell>
        <mxCell id="DLSTFzLE0LJmMaxUwIx--6" value="Terima Kasih (Kembali ke Menu)" style="rounded=0;whiteSpace=wrap;html=1;" vertex="1" parent="1">
          <mxGeometry x="260" y="560" width="200" height="60" as="geometry" />
        </mxCell>
        <mxCell id="DLSTFzLE0LJmMaxUwIx--7" value="Logout â†’ ANDA TELAH LOG KELUAR" style="rounded=0;whiteSpace=wrap;html=1;" vertex="1" parent="1">
          <mxGeometry x="240" y="650" width="240" height="60" as="geometry" />
        </mxCell>
        <mxCell id="DLSTFzLE0LJmMaxUwIx--8" value="Tamat" style="ellipse;whiteSpace=wrap;html=1;" vertex="1" parent="1">
          <mxGeometry x="300" y="740" width="120" height="60" as="geometry" />
        </mxCell>
        <mxCell id="DLSTFzLE0LJmMaxUwIx--9" edge="1" parent="1" source="DLSTFzLE0LJmMaxUwIx--2" target="DLSTFzLE0LJmMaxUwIx--3">
          <mxGeometry relative="1" as="geometry" />
        </mxCell>
        <mxCell id="DLSTFzLE0LJmMaxUwIx--10" edge="1" parent="1" source="DLSTFzLE0LJmMaxUwIx--3">
          <mxGeometry relative="1" as="geometry">
            <mxPoint x="360" y="200" as="targetPoint" />
          </mxGeometry>
        </mxCell>
        <mxCell id="DLSTFzLE0LJmMaxUwIx--11" edge="1" parent="1" source="DLSTFzLE0LJmMaxUwIx--4" target="DLSTFzLE0LJmMaxUwIx--5">
          <mxGeometry relative="1" as="geometry" />
        </mxCell>
        <mxCell id="DLSTFzLE0LJmMaxUwIx--12" edge="1" parent="1" source="DLSTFzLE0LJmMaxUwIx--5" target="DLSTFzLE0LJmMaxUwIx--6">
          <mxGeometry relative="1" as="geometry" />
        </mxCell>
        <mxCell id="DLSTFzLE0LJmMaxUwIx--14" edge="1" parent="1" source="DLSTFzLE0LJmMaxUwIx--7" target="DLSTFzLE0LJmMaxUwIx--8">
          <mxGeometry relative="1" as="geometry" />
        </mxCell>
        <mxCell id="DLSTFzLE0LJmMaxUwIx--15" value="Admin Login" style="rounded=0;whiteSpace=wrap;html=1;" vertex="1" parent="1">
          <mxGeometry x="660" y="110" width="180" height="60" as="geometry" />
        </mxCell>
        <mxCell id="DLSTFzLE0LJmMaxUwIx--19" value="Admin Logout" style="rounded=0;whiteSpace=wrap;html=1;" vertex="1" parent="1">
          <mxGeometry x="610" y="780" width="160" height="60" as="geometry" />
        </mxCell>
        <mxCell id="DLSTFzLE0LJmMaxUwIx--26" value="&lt;div&gt;&lt;br&gt;&lt;/div&gt;Adakah kata laluan dan no.IC betul?" style="rhombus;whiteSpace=wrap;html=1;" vertex="1" parent="1">
          <mxGeometry x="270" y="200" width="180" height="120" as="geometry" />
        </mxCell>
        <mxCell id="DLSTFzLE0LJmMaxUwIx--29" value="" style="endArrow=classic;html=1;rounded=0;entryX=0.5;entryY=0;entryDx=0;entryDy=0;exitX=0.5;exitY=1;exitDx=0;exitDy=0;" edge="1" parent="1" source="DLSTFzLE0LJmMaxUwIx--26" target="DLSTFzLE0LJmMaxUwIx--4">
          <mxGeometry width="50" height="50" relative="1" as="geometry">
            <mxPoint x="220" y="350" as="sourcePoint" />
            <mxPoint x="270" y="300" as="targetPoint" />
          </mxGeometry>
        </mxCell>
        <mxCell id="DLSTFzLE0LJmMaxUwIx--30" value="" style="endArrow=classic;html=1;rounded=0;exitX=0;exitY=0.5;exitDx=0;exitDy=0;entryX=0;entryY=0.5;entryDx=0;entryDy=0;" edge="1" parent="1" source="DLSTFzLE0LJmMaxUwIx--26" target="DLSTFzLE0LJmMaxUwIx--3">
          <mxGeometry width="50" height="50" relative="1" as="geometry">
            <mxPoint x="170" y="260" as="sourcePoint" />
            <mxPoint x="200" y="140" as="targetPoint" />
            <Array as="points">
              <mxPoint x="190" y="260" />
              <mxPoint x="190" y="140" />
            </Array>
          </mxGeometry>
        </mxCell>
        <mxCell id="DLSTFzLE0LJmMaxUwIx--31" value="Ya" style="text;html=1;align=center;verticalAlign=middle;whiteSpace=wrap;rounded=0;fillColor=default;strokeColor=default;" vertex="1" parent="1">
          <mxGeometry x="330" y="330" width="60" height="30" as="geometry" />
        </mxCell>
        <mxCell id="DLSTFzLE0LJmMaxUwIx--32" value="Tidak" style="text;html=1;align=center;verticalAlign=middle;whiteSpace=wrap;rounded=0;strokeColor=default;fillColor=default;" vertex="1" parent="1">
          <mxGeometry x="200" y="245" width="60" height="30" as="geometry" />
        </mxCell>
        <mxCell id="DLSTFzLE0LJmMaxUwIx--36" value="&lt;font&gt;Paparkan:&lt;span style=&quot;caret-color: rgb(255, 49, 49); --Ys-XuQ: none; font-kerning: normal;&quot; class=&quot;a_GcMg font-feature-liga-off font-feature-clig-off font-feature-calt-off text-decoration-none text-strikethrough-none&quot;&gt;Nomber Kad Pengenalan atau Kata laluan adalah salah&lt;/span&gt;&lt;/font&gt;" style="text;html=1;align=center;verticalAlign=middle;whiteSpace=wrap;rounded=0;strokeColor=default;fillColor=default;" vertex="1" parent="1">
          <mxGeometry x="90" y="180" width="200" height="30" as="geometry" />
        </mxCell>
        <mxCell id="DLSTFzLE0LJmMaxUwIx--51" style="entryX=0.5;entryY=0;entryDx=0;entryDy=0;" edge="1" parent="1" target="DLSTFzLE0LJmMaxUwIx--52">
          <mxGeometry relative="1" as="geometry">
            <mxPoint x="749.5799999999999" y="200" as="targetPoint" />
            <mxPoint x="749.5799999999999" y="170" as="sourcePoint" />
          </mxGeometry>
        </mxCell>
        <mxCell id="DLSTFzLE0LJmMaxUwIx--56" style="edgeStyle=orthogonalEdgeStyle;rounded=0;orthogonalLoop=1;jettySize=auto;html=1;exitX=1;exitY=0.5;exitDx=0;exitDy=0;entryX=1;entryY=0.5;entryDx=0;entryDy=0;" edge="1" parent="1" source="DLSTFzLE0LJmMaxUwIx--52" target="DLSTFzLE0LJmMaxUwIx--15">
          <mxGeometry relative="1" as="geometry">
            <Array as="points">
              <mxPoint x="950" y="260" />
              <mxPoint x="950" y="140" />
            </Array>
          </mxGeometry>
        </mxCell>
        <mxCell id="DLSTFzLE0LJmMaxUwIx--52" value="&lt;div&gt;&lt;br&gt;&lt;/div&gt;Adakah kata laluan dan no.IC betul?" style="rhombus;whiteSpace=wrap;html=1;" vertex="1" parent="1">
          <mxGeometry x="660" y="200" width="180" height="120" as="geometry" />
        </mxCell>
        <mxCell id="DLSTFzLE0LJmMaxUwIx--54" value="Tidak" style="text;html=1;align=center;verticalAlign=middle;whiteSpace=wrap;rounded=0;strokeColor=default;fillColor=default;" vertex="1" parent="1">
          <mxGeometry x="850" y="245" width="60" height="30" as="geometry" />
        </mxCell>
        <mxCell id="DLSTFzLE0LJmMaxUwIx--58" value="&lt;font&gt;Paparkan:&lt;span style=&quot;caret-color: rgb(255, 49, 49); --Ys-XuQ: none; font-kerning: normal;&quot; class=&quot;a_GcMg font-feature-liga-off font-feature-clig-off font-feature-calt-off text-decoration-none text-strikethrough-none&quot;&gt;Nomber Kad Pengenalan atau Kata laluan adalah salah&lt;/span&gt;&lt;/font&gt;" style="text;html=1;align=center;verticalAlign=middle;whiteSpace=wrap;rounded=0;strokeColor=default;fillColor=default;" vertex="1" parent="1">
          <mxGeometry x="850" y="180" width="200" height="30" as="geometry" />
        </mxCell>
        <mxCell id="DLSTFzLE0LJmMaxUwIx--63" value="Dashboard (Pengurusan Maklumat)" style="rounded=0;whiteSpace=wrap;html=1;" vertex="1" parent="1">
          <mxGeometry x="640" y="490" width="220" height="60" as="geometry" />
        </mxCell>
        <mxCell id="DLSTFzLE0LJmMaxUwIx--84" style="edgeStyle=orthogonalEdgeStyle;rounded=0;orthogonalLoop=1;jettySize=auto;html=1;exitX=0;exitY=0.5;exitDx=0;exitDy=0;entryX=0.5;entryY=0;entryDx=0;entryDy=0;" edge="1" parent="1" source="DLSTFzLE0LJmMaxUwIx--64" target="DLSTFzLE0LJmMaxUwIx--19">
          <mxGeometry relative="1" as="geometry">
            <mxPoint x="580" y="720" as="targetPoint" />
            <Array as="points">
              <mxPoint x="570" y="420" />
              <mxPoint x="570" y="680" />
              <mxPoint x="630" y="680" />
              <mxPoint x="630" y="760" />
              <mxPoint x="690" y="760" />
            </Array>
          </mxGeometry>
        </mxCell>
        <mxCell id="DLSTFzLE0LJmMaxUwIx--64" value="Laporan Keputusan (menu admin)" style="rounded=0;whiteSpace=wrap;html=1;" vertex="1" parent="1">
          <mxGeometry x="660" y="390" width="180" height="60" as="geometry" />
        </mxCell>
        <mxCell id="DLSTFzLE0LJmMaxUwIx--65" value="Senarai Pengundi (ID, Nama, Masa, Pilihan)" style="rounded=0;whiteSpace=wrap;html=1;" vertex="1" parent="1">
          <mxGeometry x="620" y="580" width="260" height="60" as="geometry" />
        </mxCell>
        <mxCell id="DLSTFzLE0LJmMaxUwIx--83" style="edgeStyle=orthogonalEdgeStyle;rounded=0;orthogonalLoop=1;jettySize=auto;html=1;exitX=1;exitY=0.5;exitDx=0;exitDy=0;entryX=1;entryY=0.5;entryDx=0;entryDy=0;" edge="1" parent="1" source="DLSTFzLE0LJmMaxUwIx--74" target="DLSTFzLE0LJmMaxUwIx--64">
          <mxGeometry relative="1" as="geometry">
            <Array as="points">
              <mxPoint x="910" y="700" />
              <mxPoint x="910" y="420" />
            </Array>
          </mxGeometry>
        </mxCell>
        <mxCell id="DLSTFzLE0LJmMaxUwIx--74" value="&lt;span style=&quot;caret-color: rgb(10, 118, 181); text-wrap-mode: nowrap;&quot;&gt;Kembali ke menu admin&lt;/span&gt;" style="rounded=0;whiteSpace=wrap;html=1;" vertex="1" parent="1">
          <mxGeometry x="660" y="670" width="180" height="60" as="geometry" />
        </mxCell>
        <mxCell id="DLSTFzLE0LJmMaxUwIx--77" edge="1" parent="1">
          <mxGeometry relative="1" as="geometry">
            <mxPoint x="749.5799999999999" y="640" as="sourcePoint" />
            <mxPoint x="749.5799999999999" y="670" as="targetPoint" />
          </mxGeometry>
        </mxCell>
        <mxCell id="DLSTFzLE0LJmMaxUwIx--78" edge="1" parent="1">
          <mxGeometry relative="1" as="geometry">
            <mxPoint x="749.5799999999999" y="550" as="sourcePoint" />
            <mxPoint x="749.5799999999999" y="580" as="targetPoint" />
          </mxGeometry>
        </mxCell>
        <mxCell id="DLSTFzLE0LJmMaxUwIx--79" style="entryX=0.5;entryY=0;entryDx=0;entryDy=0;" edge="1" parent="1" target="DLSTFzLE0LJmMaxUwIx--63">
          <mxGeometry relative="1" as="geometry">
            <mxPoint x="749.5799999999999" y="450" as="sourcePoint" />
            <mxPoint x="749.5799999999999" y="480" as="targetPoint" />
          </mxGeometry>
        </mxCell>
        <mxCell id="DLSTFzLE0LJmMaxUwIx--80" edge="1" parent="1" source="DLSTFzLE0LJmMaxUwIx--52" target="DLSTFzLE0LJmMaxUwIx--64">
          <mxGeometry relative="1" as="geometry">
            <mxPoint x="749.58" y="320" as="sourcePoint" />
            <mxPoint x="749.58" y="350" as="targetPoint" />
          </mxGeometry>
        </mxCell>
        <mxCell id="DLSTFzLE0LJmMaxUwIx--81" value="Ya" style="text;html=1;align=center;verticalAlign=middle;whiteSpace=wrap;rounded=0;fillColor=default;strokeColor=default;" vertex="1" parent="1">
          <mxGeometry x="720" y="330" width="60" height="30" as="geometry" />
        </mxCell>
        <mxCell id="DLSTFzLE0LJmMaxUwIx--86" style="edgeStyle=orthogonalEdgeStyle;rounded=0;orthogonalLoop=1;jettySize=auto;html=1;exitX=1;exitY=0.5;exitDx=0;exitDy=0;entryX=0.929;entryY=1;entryDx=0;entryDy=0;entryPerimeter=0;" edge="1" parent="1" source="DLSTFzLE0LJmMaxUwIx--6" target="DLSTFzLE0LJmMaxUwIx--4">
          <mxGeometry relative="1" as="geometry" />
        </mxCell>
        <mxCell id="DLSTFzLE0LJmMaxUwIx--87" style="edgeStyle=orthogonalEdgeStyle;rounded=0;orthogonalLoop=1;jettySize=auto;html=1;exitX=0;exitY=0.5;exitDx=0;exitDy=0;" edge="1" parent="1" source="DLSTFzLE0LJmMaxUwIx--19">
          <mxGeometry relative="1" as="geometry">
            <mxPoint x="480" y="440" as="targetPoint" />
            <Array as="points">
              <mxPoint x="520" y="810" />
              <mxPoint x="520" y="480" />
              <mxPoint x="480" y="480" />
            </Array>
          </mxGeometry>
        </mxCell>
      </root>
    </mxGraphModel>
  </diagram>
</mxfile>
